<?xml version="1.0" encoding="UTF-8" standalone="no"?>
<!-- Created with Inkscape (http://www.inkscape.org/) -->

<svg
   width="155.43068mm"
   height="158.89465mm"
   viewBox="0 0 155.43068 158.89465"
   version="1.1"
   id="svg1"
   xml:space="preserve"
   inkscape:export-filename=".\bitmap.svg"
   inkscape:export-xdpi="150"
   inkscape:export-ydpi="150"
   sodipodi:docname="person.svg"
   inkscape:version="1.3.2 (091e20e, 2023-11-25, custom)"
   xmlns:inkscape="http://www.inkscape.org/namespaces/inkscape"
   xmlns:sodipodi="http://sodipodi.sourceforge.net/DTD/sodipodi-0.dtd"
   xmlns="http://www.w3.org/2000/svg"
   xmlns:svg="http://www.w3.org/2000/svg"><sodipodi:namedview
     id="namedview1"
     pagecolor="#ffffff"
     bordercolor="#000000"
     borderopacity="0.25"
     inkscape:showpageshadow="2"
     inkscape:pageopacity="0.0"
     inkscape:pagecheckerboard="0"
     inkscape:deskcolor="#d1d1d1"
     inkscape:document-units="mm"
     inkscape:export-bgcolor="#00000000"
     inkscape:zoom="1.3752481"
     inkscape:cx="267.58808"
     inkscape:cy="359.93506"
     inkscape:window-width="2560"
     inkscape:window-height="1476"
     inkscape:window-x="-12"
     inkscape:window-y="-12"
     inkscape:window-maximized="1"
     inkscape:current-layer="layer1" /><defs
     id="defs1" /><g
     inkscape:label="Layer 1"
     inkscape:groupmode="layer"
     id="layer1"
     transform="translate(-0.06567203,0.30940657)"><path
       style="fill:#000000;stroke-width:1.65711"
       d="m 68.55971,202.98918 c -0.14392,-7.52176 0.05419,-14.99995 0.646917,-24.42057 0.06653,-1.05758 0.220871,-5.49944 0.342956,-9.87079 0.33044,-11.83164 0.641738,-18.73253 1.179675,-26.15116 0.562146,-7.75248 0.739101,-28.30153 0.250271,-29.063 -0.404357,-0.62988 -8.345667,8.09836 -16.528794,18.16669 -1.661817,2.04466 -4.621362,5.59834 -6.576765,7.89706 -1.955404,2.29872 -3.501493,4.2786 -3.435756,4.39972 0.139347,0.25674 -1.632203,1.80433 -2.065428,1.80433 -0.888408,0 -0.07424,-1.31743 3.140169,-5.08124 1.888443,-2.21121 4.699944,-5.57263 6.24778,-7.46982 7.236829,-8.8702 15.007249,-17.74632 17.983159,-20.54209 0.97605,-0.91697 0.97605,-0.91697 -2.931245,-1.21536 C 45.419629,109.80917 30.589164,95.183901 29.271597,74.42131 28.389263,60.517224 34.871725,45.927441 45.538883,37.80927 c 1.85884,-1.414657 1.85884,-1.414657 1.568555,-2.692031 -1.453092,-6.394229 -1.966817,-18.819499 -0.704712,-17.044606 0.369838,0.520101 0.361393,1.183359 -0.01176,0.920766 -0.08811,-0.06201 -0.08253,0.772558 0.01243,1.854601 0.09494,1.082045 0.32783,3.871005 0.517535,6.197689 0.35749,4.384533 0.975015,8.717055 1.242463,8.717055 0.08451,0 1.245184,-0.58631 2.579272,-1.302911 1.334089,-0.7166 3.445671,-1.677949 4.692405,-2.13633 1.246733,-0.458382 2.314209,-0.996957 2.372166,-1.196835 0.05797,-0.199876 0.231252,-0.478784 0.385097,-0.619796 0.580531,-0.532106 3.662308,-14.30981 3.741929,-16.729054 0.0548,-1.664969 0.224565,-1.959438 0.631038,-1.094556 0.523447,1.113777 -0.276627,5.6706 -2.544223,14.490619 -1.171852,4.558023 -1.324376,3.996886 0.970521,3.570564 3.351025,-0.622519 5.458092,-0.28405 7.321813,1.176138 1.079526,0.845787 1.109808,0.831025 1.322129,-0.644559 0.08116,-0.564045 0.297959,-2.006205 0.481774,-3.204799 0.59838,-3.901823 1.681255,-12.483689 1.681255,-13.324077 0,-1.128708 0.542466,-0.880202 0.630459,0.288816 0.08837,1.174099 -1.400256,12.745332 -1.98225,15.408189 -0.550331,2.517973 -0.831557,2.339504 2.310963,1.466565 2.226861,-0.618584 5.431455,-1.295294 9.172363,-1.936914 0.788008,-0.135155 0.788008,-0.135155 1.406095,-3.518611 0.339948,-1.860901 0.819596,-4.421811 1.065888,-5.690912 0.767515,-3.954903 0.945388,-6.101311 0.53506,-6.456636 -0.393266,-0.340548 -0.22755,-0.850306 0.276423,-0.850306 1.053637,0 0.856233,3.143428 -0.69925,11.134748 -0.547785,2.814253 -0.973396,5.137258 -0.945801,5.16223 0.02759,0.02497 1.161456,-0.04757 2.519688,-0.161204 1.358233,-0.113644 3.789802,-0.102823 5.403485,0.02405 1.613684,0.126869 3.066192,0.234732 3.227793,0.239708 0.879279,0.02708 3.869863,-11.227839 3.871058,-14.568535 2.82e-4,-0.790479 -0.04582,-0.847858 -0.562556,-0.700172 -0.656224,0.187554 -0.729481,-0.110761 -0.168858,-0.687598 1.575152,-1.620733 2.41888,0.441625 1.616082,3.950244 -0.641994,2.805817 -1.310784,7.215836 -1.324089,8.731083 -0.01243,1.421007 -0.28684,1.743601 -0.669507,0.787208 -0.274499,-0.686051 -0.274499,-0.686051 -0.98979,0.969479 -0.715289,1.655531 -0.715289,1.655531 2.099025,2.459385 18.730499,5.349993 34.117089,24.52081 30.980729,38.600209 -3.83903,17.233696 -33.480174,39.805226 -55.001602,41.883336 -1.777174,0.17161 -2.334161,0.49375 -1.980458,1.14547 0.06435,0.11853 0.02351,0.28131 -0.09071,0.3617 -0.114225,0.0804 -0.155023,0.37549 -0.09064,0.65578 0.06436,0.28029 0.206831,0.44644 0.316582,0.3692 0.10975,-0.0772 0.199549,0.0214 0.199549,0.21929 0,0.372 3.810368,4.32364 6.90384,7.15981 5.567399,5.10434 12.642589,8.739 14.412516,7.40398 1.543645,-1.16433 3.787336,-1.42026 3.787336,-0.43201 0,0.54046 -0.672934,1.13828 -0.939548,0.83467 -0.09522,-0.10844 -0.0241,-0.30449 0.158055,-0.43568 0.473764,-0.34118 -0.06459,-0.32395 -1.119129,0.0358 -1.581771,0.53967 -1.974196,1.07191 -1.401555,1.90092 0.896762,1.29822 0.504213,1.86368 -0.602357,0.86767 -0.598375,-0.53859 -0.598375,-0.53859 -0.668542,0.11552 -0.174736,1.6289 0.957582,2.22167 3.241849,1.69706 0.732172,-0.16814 1.609839,-0.36362 1.950372,-0.43438 0.529549,-0.11003 0.619144,-0.25279 0.619144,-0.98643 0,-0.47177 0.11378,-1.72886 0.25283,-2.79352 0.25242,-1.93266 0.25188,-1.9366 -0.337716,-2.46473 -0.840231,-0.75263 -0.82442,-1.95903 0.0286,-2.18249 0.340536,-0.0892 1.551884,-0.5529 2.691904,-1.03042 2.8766,-1.20493 4.76149,-1.10483 5.56732,0.29566 1.20846,2.10024 -0.97125,3.80168 -4.93777,3.85434 -2.02575,0.0269 -2.02575,0.0269 -2.18219,1.02961 -0.25599,1.64074 -0.20789,6.97614 0.0582,6.45613 0.44251,-0.86475 6.16338,-2.51271 7.07709,-2.03863 0.50654,0.26282 0.56449,0.23505 0.58343,-0.27957 0.12788,-3.47506 0.58731,-8.65577 0.76698,-8.64882 0.42389,0.0164 0.0187,14.29481 -0.41981,14.79418 -0.34885,0.39726 -0.54276,-0.56989 -0.45912,-2.28995 0.0965,-1.98492 0.25727,-2.02207 -2.12904,0.49203 -1.10378,1.16289 -2.91333,1.4559 -4.45655,0.72164 -0.44455,-0.21152 -1.03835,-0.38458 -1.31955,-0.38458 -0.643668,0 -0.784598,-0.42315 -0.784598,-2.35585 0,-1.36848 -0.04496,-1.52434 -0.394007,-1.36575 -3.470763,1.57691 -6.212646,0.77394 -6.255658,-1.83199 -0.01907,-1.15532 -0.01907,-1.15532 -2.943972,-2.49192 -5.026508,-2.29697 -9.177323,-5.51173 -15.054903,-11.65983 -3.037725,-3.17755 -2.889092,-3.39433 -2.563428,3.73884 0.282138,6.17975 0.133497,11.77768 -0.590751,22.24791 -0.362016,5.23356 -0.659784,12.22017 -1.13641,26.66392 -0.181475,5.49944 -0.478498,13.07775 -0.660051,16.84071 -0.181553,3.76293 -0.323515,10.59141 -0.315469,15.17441 0.01392,7.89723 -0.03684,8.87813 -0.458797,8.87813 -0.09757,0 -0.247495,-3.66308 -0.333156,-8.14019 z m 35.3596,-66.12569 c -0.0826,-0.094 -0.21764,-0.094 -0.3002,0 -0.0825,0.094 -0.0151,0.17092 0.1501,0.17092 0.1651,0 0.23265,-0.0769 0.15011,-0.17092 z m 0.0566,-1.14359 c 2.20306,-0.42959 4.14272,-1.7621 2.56501,-1.7621 -1.404,0 -5.35976,1.3819 -5.13599,1.79421 0.17965,0.33102 0.74502,0.32396 2.57098,-0.0321 z m 1.69152,-9.83932 c 2.00479,-1.15893 1.53182,-2.30659 -0.95032,-2.30593 -1.26247,3.4e-4 -1.59409,0.0945 -2.013,0.57152 -0.36094,0.41102 -0.67642,0.53474 -1.12537,0.44132 -0.87312,-0.18168 -1.14842,0.12307 -1.01684,1.12557 0.13829,1.05355 3.38834,1.16019 5.10553,0.16752 z m -5.725688,-0.12707 c 0,-0.141 -0.1073,-0.25638 -0.23843,-0.25638 -0.13114,0 -0.17582,0.11536 -0.0993,0.25638 0.0765,0.14102 0.18383,0.25639 0.23844,0.25639 0.0546,0 0.0993,-0.11537 0.0993,-0.25639 z M 75.288341,110.10368 c 21.313741,-2.76201 49.532469,-24.302773 53.389219,-40.754638 3.26658,-13.9343 -13.24428,-33.587436 -31.88785,-37.956627 -4.467963,-1.047085 -13.684875,-1.024144 -13.390141,0.03332 0.0974,0.34948 0.029,0.491243 -0.23705,0.491243 -0.205682,0 -0.42755,-0.233322 -0.493037,-0.518494 -0.09643,-0.419864 -0.253015,-0.493977 -0.823217,-0.389602 -8.746638,1.601062 -11.922233,2.406469 -12.034204,3.052159 -0.08602,0.496042 -0.412049,0.555068 -0.548466,0.09929 -0.106933,-0.357273 -3.695846,0.941565 -5.644337,2.042703 -0.597993,0.33794 -1.198186,0.57233 -1.333762,0.520867 -0.552155,-0.209588 1.609943,-1.477989 5.657665,-3.319084 0.760048,-0.345705 0.760048,-0.345705 -0.409219,-1.070398 -2.988431,-1.852187 -10.097158,-0.467962 -16.673856,3.246764 -2.424296,1.369318 -2.463191,1.420356 -2.141015,2.809483 0.222524,0.959457 -0.206246,0.910445 -0.560728,-0.0641 -0.529385,-1.455379 -5.936204,2.958289 -9.165984,7.482331 -18.378369,25.743085 -6.617111,58.723959 22.78727,63.899979 1.238299,0.21797 2.504741,0.44029 2.814316,0.49403 1.247383,0.21656 8.79817,0.14649 10.694396,-0.0992 z M 66.16996,96.9062 c -8.181765,-1.903726 -11.13322,-9.728645 -6.424626,-17.033023 0.791926,-1.228506 0.791926,-1.228506 -0.991326,-1.405643 -1.128212,-0.11207 -1.883568,-0.314786 -2.056354,-0.551868 -0.411822,-0.565064 -0.278665,-0.587735 2.155087,-0.366919 2.251452,0.204275 2.251452,0.204275 3.048953,-0.664723 1.103138,-1.202036 1.79167,-1.083723 1.79167,0.30787 0,0.300607 -0.07958,0.309184 -0.446652,0.04814 -0.370971,-0.263819 -0.512664,-0.242467 -0.836253,0.126024 -0.369374,0.420623 -0.36664,0.443871 0.05265,0.447718 0.243238,0.0022 1.607376,0.111623 3.031419,0.243102 10.264419,0.947663 12.918255,0.874898 22.57504,-0.618988 8.26645,-1.278804 11.10722,-0.228405 9.169596,3.390535 -0.247198,0.461695 -0.44945,1.105384 -0.44945,1.43042 0,6.165707 -21.948382,16.665003 -30.61975,14.647359 z m 5.741204,-1.161945 c 13.774717,-2.259889 29.353486,-14.088274 21.442955,-16.280842 -0.984795,-0.272957 -0.955187,-0.628164 0.05235,-0.628164 1.007708,0 2.340215,0.54289 2.999078,1.221884 0.403403,0.415728 0.417338,0.397498 0.345958,-0.452604 -0.146754,-1.747798 -2.05244,-1.94375 -8.794521,-0.904291 -8.573181,1.321769 -13.570409,1.445327 -21.224168,0.524773 -5.394858,-0.648864 -5.228222,-0.683588 -6.405746,1.334772 -5.204721,8.921253 0.909466,16.935757 11.584087,15.184472 z M 85.26623,68.275636 c -5.364113,-1.625626 -1.525766,-18.294997 4.918721,-21.361283 0.394582,-0.187743 1.256879,-0.829047 1.916216,-1.425122 7.286965,-6.587805 12.765013,-0.704914 8.871273,9.526881 -3.361596,8.833439 -10.480354,14.843251 -15.70621,13.259524 z m 3.868543,-1.269163 C 97.269282,64.91242 104.98736,47.464178 99.268732,44.09665 c -1.717794,-1.011558 -6.998039,1.093018 -6.228379,2.48248 0.1677,0.302747 0.150682,0.535153 -0.06038,0.82477 -0.313128,0.429645 -0.799396,0.299293 -0.55606,-0.149057 0.176578,-0.325351 -0.741886,-0.02994 -1.318976,0.424232 -0.690456,0.543391 -2.649219,3.229443 -3.58356,4.914138 -1.432319,2.582585 -1.666105,2.134334 -0.353756,-0.678275 0.475828,-1.019788 0.531471,-1.248095 0.201019,-0.824796 -1.542171,1.975469 -3.806702,8.245468 -4.023136,11.139197 -0.32371,4.328015 1.544739,5.869804 5.78928,4.777139 z m 2.879448,-4.002934 c -1.879149,-2.462579 3.009938,-17.30355 5.979981,-18.152412 1.2432,-0.355317 2.230858,0.784952 2.530948,2.922031 0.40016,2.849622 -4.147862,14.311184 -5.87459,14.804697 -0.299268,0.08552 -0.661998,0.317254 -0.806069,0.514936 -0.364832,0.500587 -1.419415,0.449162 -1.83027,-0.08925 z m 1.214337,-1.742525 c -0.126073,-1.736497 -0.590535,-2.280923 -0.673787,-0.789793 -0.08078,1.446878 0.06625,2.04458 0.463876,1.885664 0.177089,-0.07078 0.254859,-0.476784 0.209911,-1.095871 z m 1.800291,-1.52637 c 0.247125,-0.50613 0.244114,-0.506445 -0.232685,-0.02436 -0.265679,0.268625 -0.481499,0.67243 -0.479603,0.897343 0.0038,0.446161 0.164219,0.249505 0.712288,-0.872983 z m 0.635136,-1.025536 c 0,-0.07051 -0.05066,-0.128194 -0.112567,-0.128194 -0.06191,0 -0.112568,0.05768 -0.112568,0.128194 0,0.07051 0.05066,0.128195 0.112568,0.128195 0.06191,0 0.112567,-0.05768 0.112567,-0.128195 z m -1.801162,-1.025535 c 0,-0.07051 -0.05066,-0.128194 -0.112567,-0.128194 -0.06191,0 -0.112568,0.05768 -0.112568,0.128194 0,0.07051 0.05066,0.128194 0.112568,0.128194 0.06191,0 0.112567,-0.05768 0.112567,-0.128194 z m 2.428578,-2.441732 c 1.679933,-3.327592 2.834576,-7.737982 1.843134,-7.04022 -0.433151,0.304846 -1.963778,4.09107 -2.668412,6.600697 -1.087668,3.87384 -0.946493,3.949027 0.825278,0.439523 z m -2.203433,1.159811 c 0,-0.07051 -0.05066,-0.128194 -0.112567,-0.128194 -0.06191,0 -0.112568,0.05768 -0.112568,0.128194 0,0.07051 0.05066,0.128194 0.112568,0.128194 0.06191,0 0.112567,-0.05768 0.112567,-0.128194 z M 94.313114,55.6325 c 0,-0.07051 -0.05066,-0.128194 -0.112568,-0.128194 -0.06191,0 -0.112568,0.05768 -0.112568,0.128194 0,0.07051 0.05066,0.128194 0.112568,0.128194 0.06191,0 0.112568,-0.05768 0.112568,-0.128194 z m 0.45029,-1.538303 c 0,-0.07051 -0.05066,-0.128194 -0.112567,-0.128194 -0.06191,0 -0.112568,0.05768 -0.112568,0.128194 0,0.07051 0.05066,0.128195 0.112568,0.128195 0.06191,0 0.112567,-0.05768 0.112567,-0.128195 z m 0.225145,-0.769152 c 0,-0.07051 -0.05066,-0.128194 -0.112567,-0.128194 -0.06191,0 -0.112568,0.05768 -0.112568,0.128194 0,0.07051 0.05066,0.128194 0.112568,0.128194 0.06191,0 0.112567,-0.05768 0.112567,-0.128194 z m 3.827468,-6.665984 c 0,-0.07051 -0.05066,-0.128194 -0.112567,-0.128194 -0.06191,0 -0.112568,0.05768 -0.112568,0.128194 0,0.07051 0.05066,0.128195 0.112568,0.128195 0.06191,0 0.112567,-0.05768 0.112567,-0.128195 z M 88.57191,49.607477 c 0.07652,-0.141004 0.08849,-0.256383 0.02658,-0.256383 -0.06191,0 -0.175189,0.115368 -0.251721,0.256383 -0.07653,0.141004 -0.08849,0.256384 -0.02658,0.256384 0.06191,0 0.17519,-0.115369 0.251721,-0.256384 z M 57.16758,65.456099 c -2.257389,-1.752034 -2.796464,-6.869817 -1.133671,-10.762637 0.273412,-0.640091 0.327388,-0.900823 0.127184,-0.614359 -0.191297,0.273722 -0.347815,0.590997 -0.347815,0.705056 0,0.114059 -0.108143,0.207381 -0.240316,0.207381 -0.706566,0 1.485472,-4.160509 3.336101,-6.331948 7.700575,-9.035489 14.147862,-2.081141 8.421613,9.083947 -3.225338,6.28879 -7.66074,9.654722 -10.163096,7.71256 z m 3.588016,-1.121211 c 4.588408,-2.432171 9.227446,-12.85282 7.532505,-16.92023 -0.686731,-1.647973 -0.932287,-1.546778 -0.700523,0.288686 0.366519,2.902653 -4.726068,15.492483 -6.266709,15.492483 -1.650618,0 0.165885,-11.780402 2.00411,-12.997077 0.17176,-0.113678 0.617719,-0.89936 0.991021,-1.745949 0.373302,-0.846589 0.956973,-1.8561 1.297047,-2.243359 1.635146,-1.862021 -3.041559,-0.130829 -5.071717,1.877422 -0.762451,0.75422 -0.767452,0.770732 -0.154194,0.509098 1.816139,-0.774829 2.801093,0.718294 1.922441,2.914291 -0.385857,0.964367 -0.591465,0.583062 -0.468893,-0.869566 0.173963,-2.061665 -1.399518,-1.658447 -3.102609,0.795071 -4.679409,6.741278 -3.277291,15.70575 2.01753,12.89913 z m 1.610452,-3.765162 c 0.193556,-0.40095 0.157177,-0.416471 -0.354214,-0.151129 -0.400077,0.20758 -0.567789,0.493558 -0.562763,0.959608 0.0076,0.710372 0.314264,0.440051 0.916977,-0.808472 z m 0.223901,-2.036285 c 0.158387,-0.337015 0.132519,-0.62111 -0.08939,-0.9819 -0.295867,-0.481022 -0.325949,-0.455667 -0.572884,0.482882 -0.44804,1.702914 -0.04592,2.005905 0.662274,0.499018 z m 1.303286,-3.155586 c 0.788051,-1.249597 1.704917,-4.031583 1.955281,-5.932783 0.416004,-3.159015 -1.797779,2.002002 -2.571573,5.99514 -0.260097,1.34222 -0.270136,1.343235 0.616292,-0.06236 z m -7.179374,-2.05281 c 0,-0.07051 -0.05066,-0.128194 -0.112568,-0.128194 -0.06191,0 -0.112568,0.05768 -0.112568,0.128194 0,0.07051 0.05066,0.128194 0.112568,0.128194 0.06191,0 0.112568,-0.05768 0.112568,-0.128194 z m 10.128088,-5.976058 c -0.0116,-0.592227 -0.423775,-0.902704 -0.767402,-0.57795 -0.377262,0.356543 -0.499179,0.917189 -0.145296,0.668125 0.115269,-0.08113 0.274247,-0.02837 0.353275,0.117241 0.146439,0.269807 0.565678,0.114357 0.559416,-0.207419 z m 35.150891,71.387983 c -0.19433,-0.26664 -0.17398,-0.42759 0.085,-0.67235 0.46989,-0.44409 0.42596,-0.95803 -0.1098,-1.28454 -0.46188,-0.28149 -0.61198,-1.13787 -0.24474,-1.39633 0.11305,-0.0796 0.27394,-0.60555 0.35751,-1.16886 0.21429,-1.44437 0.79477,-1.39403 0.75451,0.0654 -0.0166,0.5993 -0.13245,1.23786 -0.25758,1.41902 -0.16308,0.23608 -0.0903,0.47495 0.25682,0.84324 0.59291,0.62901 0.59281,0.61809 0.0157,1.68143 -0.53699,0.98942 -0.51832,0.97825 -0.85743,0.51295 z m 2.94752,-1.15577 c -0.41273,-0.29047 -0.10231,-0.98566 0.51946,-1.16337 0.46513,-0.13293 0.51641,-0.26363 0.40641,-1.03557 -0.11903,-0.83524 0.33878,-1.80698 0.85131,-1.80698 0.0914,0 0.24217,-0.0865 0.33504,-0.19229 0.30394,-0.34612 0.5441,-0.20224 0.5441,0.32597 0,0.30402 -0.23269,0.639 -0.56286,0.81031 -0.62519,0.32438 -0.67452,0.51865 -0.3221,1.26851 0.28853,0.61393 -0.0711,1.24868 -0.70744,1.24868 -0.22634,0 -0.49401,0.16783 -0.59481,0.37295 -0.10901,0.22179 -0.29912,0.29142 -0.46911,0.17179 z"
       id="path1" /></g></svg>
